<?xml version="1.0" encoding="UTF-8" standalone="no"?>
<svg
   version="1.1"
   viewBox="0 0 1575.3567 491.67548"
   id="svg79"
   sodipodi:docname="knows-inkscape"
   width="1575.3567"
   height="491.67548"
   inkscape:version="1.3.1 (9b9bdc1480, 2023-11-25, custom)"
   xmlns:inkscape="http://www.inkscape.org/namespaces/inkscape"
   xmlns:sodipodi="http://sodipodi.sourceforge.net/DTD/sodipodi-0.dtd"
   xmlns="http://www.w3.org/2000/svg"
   xmlns:svg="http://www.w3.org/2000/svg"
   xmlns:rdf="http://www.w3.org/1999/02/22-rdf-syntax-ns#"
   xmlns:cc="http://creativecommons.org/ns#"
   xmlns:dc="http://purl.org/dc/elements/1.1/">
  <defs
     id="defs79" />
  <sodipodi:namedview
     id="namedview79"
     pagecolor="#ffffff"
     bordercolor="#000000"
     borderopacity="0.25"
     inkscape:showpageshadow="2"
     inkscape:pageopacity="0.0"
     inkscape:pagecheckerboard="0"
     inkscape:deskcolor="#d1d1d1"
     showgrid="false"
     showguides="false"
     inkscape:zoom="1.1021608"
     inkscape:cx="352.03575"
     inkscape:cy="381.06962"
     inkscape:window-width="1920"
     inkscape:window-height="1016"
     inkscape:window-x="0"
     inkscape:window-y="0"
     inkscape:window-maximized="1"
     inkscape:current-layer="svg79" />
  <path
     fill="#203445"
     d="m 219.98003,490.25823 q -18.98,-2.12 -33.7,-5.99 -34.03,-8.94 -62.6,-25.31 c -52.989998,-30.38 -92.329998,-79.66 -111.409998,-137.18 q -9.0899998,-27.4 -11.5699998,-58.35 c -1.06,-13.24 -0.9,-28.55 0.37,-41.64 q 1.16,-11.86 4.8800002,-28.75 7.5399996,-34.19 22.4399996,-61.52 13.82,-25.36 28.48,-43.17 7.23,-8.78 19.07,-20.19 40.149998,-38.71 92.969998,-56.03 15.22,-4.99 36.5,-8.94 9.37,-1.75 19.67,-2.51 43.08,-3.18 85.59,8.55 24.54,6.77 48.15,19.31 45.76,24.29 77.06,64.28 45.75,58.45 52.65,132.67 2.05,22.06 -0.41,43.89 -4.65,41.19 -20.45,76.58 -5.75,12.9 -15.33,29.28 c -3.54,6.06 -7.89,11.8 -11.94,17.5 -18.42,25.97 -42.03,46.07 -69.76,63.3 q -8.54,5.3 -17.58,9.72 -42.51,20.77 -89.72,25.09 -20.93,1.91 -43.36,-0.59 z m -144.519998,-342.17 q -12.32,21.41 -18.38,44.2 -4.31,16.22 -6.01,29.34 -3.31,25.53 0.26,52.86 1.19,9.07 4.03,19.49 10.46,38.31 34.43,70.91 24.389998,33.19 63.349998,54.45 32.26,17.6 72.09,22.08 29.83,3.35 60.35,-3.49 40.98,-9.18 72.92,-32.75 48.46,-35.78 68.43,-90.47 3.9,-10.67 7.46,-23.83 c 5.34,-19.71 6.04,-39.65 4.85,-60.83 q -0.58,-10.16 -2.27,-19.14 -6.45,-34.22 -22.17,-61.99 c -8.48,-14.96 -19.89,-30.4 -32.67,-42.9 -15.7,-15.37 -32.62,-27.63 -53.09,-37.44 q -40,-19.17 -82.22,-19.4 -59.87,-0.33 -109.18,31.74 -7.86,5.11 -15.9,11.91 c -13.29,11.24 -25.399996,23.62 -35.149998,37.77 q -6.45,9.37 -11.13,17.49 z"
     id="path55"
     style="stroke:none;stroke-width:1.00157;stroke-dasharray:none;stroke-opacity:1" />
  <rect
     style="fill:#284d5c;fill-opacity:1;stroke:none;stroke-width:0.913712;stroke-dasharray:none;stroke-dashoffset:0;stroke-opacity:1"
     id="rect79-2-2"
     width="149.69794"
     height="13.143198"
     x="-40.254189"
     y="297.32913"
     ry="6.571599"
     transform="matrix(0.95697239,-0.29017898,0.35393895,0.93526853,0,0)" />
  <rect
     style="fill:#284d5c;fill-opacity:1;stroke:none;stroke-width:0.630795;stroke-dasharray:none;stroke-dashoffset:0;stroke-opacity:1"
     id="rect79-7-5"
     width="102.44952"
     height="9.1529713"
     x="-425.42401"
     y="82.735352"
     ry="4.5764856"
     transform="matrix(-0.506153,-0.8624437,0.87292975,-0.48784594,0,0)" />
  <rect
     style="fill:#284d5c;fill-opacity:1;stroke:none;stroke-width:0.630795;stroke-dasharray:none;stroke-dashoffset:0;stroke-opacity:1"
     id="rect79-7-5-9"
     width="102.44952"
     height="9.1529713"
     x="-256.14191"
     y="168.10699"
     ry="4.5764856"
     transform="matrix(-0.24931287,-0.96842299,0.97346706,-0.2288272,0,0)" />
  <ellipse
     fill="#38b4b6"
     cx="316.24506"
     cy="218.03944"
     transform="rotate(-14.1)"
     rx="13.31"
     ry="12.93"
     id="ellipse57-1" />
  <ellipse
     fill="#38b4b6"
     cx="215.3989"
     cy="-263.50131"
     transform="rotate(95.2)"
     rx="23.535545"
     ry="22.63485"
     id="ellipse72-9"
     style="stroke-width:1.95803" />
  <rect
     style="fill:#284d5c;fill-opacity:1;stroke:none;stroke-width:0.996786;stroke-dasharray:none;stroke-dashoffset:0;stroke-opacity:1"
     id="rect79"
     width="154.75133"
     height="15.13088"
     x="-128.75066"
     y="228.07532"
     ry="7.5654402"
     transform="matrix(0.57463151,-0.81841226,0.7816218,0.62375264,0,0)" />
  <rect
     style="fill:#284d5c;fill-opacity:1;stroke:none;stroke-width:0.630795;stroke-dasharray:none;stroke-dashoffset:0;stroke-opacity:1"
     id="rect79-7"
     width="102.44952"
     height="9.1529713"
     x="-154.42139"
     y="425.81079"
     ry="4.5764856"
     transform="matrix(0.39128302,-0.9202704,0.91181094,0.41061029,0,0)" />
  <rect
     style="fill:#284d5c;fill-opacity:1;stroke:none;stroke-width:0.876361;stroke-dasharray:none;stroke-dashoffset:0;stroke-opacity:1"
     id="rect79-2"
     width="139.16145"
     height="13.006057"
     x="283.42599"
     y="-50.040928"
     ry="6.5030284"
     transform="matrix(0.78842163,0.61513522,-0.60287843,0.79783306,0,0)" />
  <circle
     fill="#38b4b6"
     cx="87.421127"
     cy="286.8981"
     r="23.651855"
     id="circle66"
     style="stroke-width:1.98922" />
  <circle
     fill="#38b4b6"
     cx="365.30536"
     cy="232.74342"
     id="circle66-3"
     style="stroke-width:1.82712"
     r="21.724615" />
  <circle
     fill="#38b4b6"
     cx="209.41133"
     cy="111.742"
     id="circle66-5"
     style="stroke-width:2.72225"
     r="32.367607" />
  <circle
     fill="#38b4b6"
     cx="173.2704"
     cy="364.26804"
     id="circle66-5-0"
     style="stroke-width:1.87998"
     r="22.352945" />
  <circle
     fill="#38b4b6"
     cx="315.74725"
     cy="359.68466"
     id="circle66-5-9"
     style="stroke-width:2.72225"
     r="32.367607" />
  <path
     sodipodi:type="star"
     style="fill:#295160;fill-opacity:1;stroke:none;stroke-width:15.1181;stroke-dasharray:none;stroke-dashoffset:0;stroke-opacity:1"
     id="path89"
     inkscape:flatsided="false"
     sodipodi:sides="3"
     sodipodi:cx="249.99361"
     sodipodi:cy="614.8573"
     sodipodi:r1="3.0279119"
     sodipodi:r2="1.513956"
     sodipodi:arg1="-1.5817182"
     sodipodi:arg2="-0.53452067"
     inkscape:rounded="0"
     inkscape:randomized="0"
     d="m 249.96054,611.82957 1.33585,2.25648 1.33584,2.25648 -2.62209,0.0286 -2.62209,0.0286 1.28624,-2.28511 z"
     inkscape:transform-center-x="-2.9269464"
     inkscape:transform-center-y="-1.2201025"
     transform="matrix(4.9813467,-1.8790613,1.8790613,4.9813467,-2291.4648,-2339.6014)" />
  <path
     sodipodi:type="star"
     style="fill:#284d5c;fill-opacity:1;stroke:none;stroke-width:15.1181;stroke-dasharray:none;stroke-dashoffset:0;stroke-opacity:1"
     id="path89-8"
     inkscape:flatsided="false"
     sodipodi:sides="3"
     sodipodi:cx="249.99361"
     sodipodi:cy="614.8573"
     sodipodi:r1="3.0279119"
     sodipodi:r2="1.513956"
     sodipodi:arg1="-1.5817182"
     sodipodi:arg2="-0.53452067"
     inkscape:rounded="0"
     inkscape:randomized="0"
     d="m 249.96054,611.82957 1.33585,2.25648 1.33584,2.25648 -2.62209,0.0286 -2.62209,0.0286 1.28624,-2.28511 z"
     inkscape:transform-center-x="-0.93034585"
     inkscape:transform-center-y="3.1975659"
     transform="matrix(3.2228365,-4.2376894,4.2376894,3.2228365,-3162.1391,-783.99848)" />
  <path
     sodipodi:type="star"
     style="fill:#284d5c;fill-opacity:1;stroke:none;stroke-width:15.1181;stroke-dasharray:none;stroke-dashoffset:0;stroke-opacity:1"
     id="path89-8-73"
     inkscape:flatsided="false"
     sodipodi:sides="3"
     sodipodi:cx="249.99361"
     sodipodi:cy="614.8573"
     sodipodi:r1="3.0279119"
     sodipodi:r2="1.513956"
     sodipodi:arg1="-1.5817182"
     sodipodi:arg2="-0.53452067"
     inkscape:rounded="0"
     inkscape:randomized="0"
     d="m 249.96054,611.82957 1.33585,2.25648 1.33584,2.25648 -2.62209,0.0286 -2.62209,0.0286 1.28624,-2.28511 z"
     inkscape:transform-center-x="1.8589056"
     inkscape:transform-center-y="2.3116489"
     transform="matrix(1.5824727,-5.0833519,5.0833519,1.5824727,-3290.7351,497.98769)" />
  <path
     sodipodi:type="star"
     style="fill:#284d5c;fill-opacity:1;stroke:none;stroke-width:15.1181;stroke-dasharray:none;stroke-dashoffset:0;stroke-opacity:1"
     id="path89-8-92"
     inkscape:flatsided="false"
     sodipodi:sides="3"
     sodipodi:cx="249.99361"
     sodipodi:cy="614.8573"
     sodipodi:r1="3.0279119"
     sodipodi:r2="1.513956"
     sodipodi:arg1="-1.5817182"
     sodipodi:arg2="-0.53452067"
     inkscape:rounded="0"
     inkscape:randomized="0"
     d="m 249.96054,611.82957 1.33585,2.25648 1.33584,2.25648 -2.62209,0.0286 -2.62209,0.0286 1.28624,-2.28511 z"
     inkscape:transform-center-x="-2.1647544"
     inkscape:transform-center-y="2.0073533"
     transform="matrix(3.8429471,-3.6846227,3.6846227,3.8429471,-3020.2427,-1187.918)" />
  <path
     sodipodi:type="star"
     style="fill:#284d5c;fill-opacity:1;stroke:none;stroke-width:15.1181;stroke-dasharray:none;stroke-dashoffset:0;stroke-opacity:1"
     id="path89-8-9"
     inkscape:flatsided="false"
     sodipodi:sides="3"
     sodipodi:cx="249.99361"
     sodipodi:cy="614.8573"
     sodipodi:r1="3.0279119"
     sodipodi:r2="1.513956"
     sodipodi:arg1="-1.5817182"
     sodipodi:arg2="-0.53452067"
     inkscape:rounded="0"
     inkscape:randomized="0"
     d="m 249.96054,611.82957 1.33585,2.25648 1.33584,2.25648 -2.62209,0.0286 -2.62209,0.0286 1.28624,-2.28511 z"
     inkscape:transform-center-x="-3.0398925"
     inkscape:transform-center-y="1.0999353"
     transform="matrix(4.239742,-3.2201357,3.2201357,4.239742,-2705.492,-1487.27)" />
  <path
     sodipodi:type="star"
     style="fill:#284d5c;fill-opacity:1;stroke:none;stroke-width:15.1181;stroke-dasharray:none;stroke-dashoffset:0;stroke-opacity:1"
     id="path89-8-7"
     inkscape:flatsided="false"
     sodipodi:sides="3"
     sodipodi:cx="249.99361"
     sodipodi:cy="614.8573"
     sodipodi:r1="3.0279119"
     sodipodi:r2="1.513956"
     sodipodi:arg1="-1.5817182"
     sodipodi:arg2="-0.53452067"
     inkscape:rounded="0"
     inkscape:randomized="0"
     d="m 249.96054,611.82957 1.33585,2.25648 1.33584,2.25648 -2.62209,0.0286 -2.62209,0.0286 1.28624,-2.28511 z"
     inkscape:transform-center-x="2.8338727"
     inkscape:transform-center-y="0.0050609481"
     transform="matrix(3.2247515,1.9129244,-1.9129244,3.2247515,661.1834,-2137.3146)" />
  <text
     xml:space="preserve"
     style="font-style:normal;font-variant:normal;font-weight:normal;font-stretch:normal;font-size:400px;font-family:Ubuntu;-inkscape-font-specification:Ubuntu;letter-spacing:-30px;word-spacing:0px;fill:#203445;fill-opacity:1;stroke:none;stroke-width:6.67087;stroke-dasharray:none;stroke-dashoffset:0;stroke-opacity:1"
     x="498.95944"
     y="398.23773"
     id="text99"><tspan
       sodipodi:role="line"
       id="tspan99"
       x="498.95944"
       y="398.23773"
       style="font-style:normal;font-variant:normal;font-weight:bold;font-stretch:normal;font-size:400px;font-family:Ubuntu;-inkscape-font-specification:'Ubuntu Bold';letter-spacing:-30px;word-spacing:0px;fill:#203445;fill-opacity:1;stroke:none;stroke-width:6.67087;stroke-dasharray:none;stroke-opacity:1"
       dx="0"
       dy="0">knows</tspan></text>
  <metadata
     id="metadata1">
    <rdf:RDF>
      <cc:Work
         rdf:about="">
        <dc:creator>
          <cc:Agent>
            <dc:title>Łukasz Szeremeta</dc:title>
          </cc:Agent>
        </dc:creator>
      </cc:Work>
    </rdf:RDF>
  </metadata>
</svg>
